<mxfile host="app.diagrams.net" modified="2021-03-29T11:03:18.153Z" agent="5.0 (Macintosh; Intel Mac OS X 11_2_3) AppleWebKit/537.36 (KHTML, like Gecko) Chrome/89.0.4389.90 Safari/537.36" etag="jYXSrQe45-i2ZbtM57vR" version="14.5.3" type="github">
  <diagram id="hgLj7lYn0DOUmQAp7Po5" name="Page-1">
    <mxGraphModel dx="1186" dy="771" grid="1" gridSize="10" guides="1" tooltips="1" connect="1" arrows="1" fold="1" page="1" pageScale="1" pageWidth="827" pageHeight="1169" background="#000000" math="0" shadow="0">
      <root>
        <mxCell id="0" />
        <mxCell id="1" parent="0" />
        <object label="asdfasd" placeholders="1" id="ijEVnzFpKFaMIr0T0D3W-8">
          <mxCell style="shape=process;whiteSpace=wrap;html=1;backgroundOutline=1;direction=west;fontFamily=Lucida Console;shadow=0;rounded=0;glass=0;sketch=0;" vertex="1" parent="1">
            <mxGeometry x="110" y="290" width="120" height="60" as="geometry" />
          </mxCell>
        </object>
        <mxCell id="ijEVnzFpKFaMIr0T0D3W-4" style="edgeStyle=orthogonalEdgeStyle;rounded=0;orthogonalLoop=1;jettySize=auto;html=1;exitX=1;exitY=0.5;exitDx=0;exitDy=0;entryX=0;entryY=0.5;entryDx=0;entryDy=0;" edge="1" parent="1" source="ijEVnzFpKFaMIr0T0D3W-5" target="ijEVnzFpKFaMIr0T0D3W-2">
          <mxGeometry relative="1" as="geometry" />
        </mxCell>
        <mxCell id="ijEVnzFpKFaMIr0T0D3W-1" value="" style="ellipse;whiteSpace=wrap;html=1;aspect=fixed;" vertex="1" parent="1">
          <mxGeometry x="120" y="130" width="80" height="80" as="geometry" />
        </mxCell>
        <mxCell id="ijEVnzFpKFaMIr0T0D3W-2" value="" style="rhombus;whiteSpace=wrap;html=1;" vertex="1" parent="1">
          <mxGeometry x="480" y="130" width="80" height="80" as="geometry" />
        </mxCell>
        <mxCell id="ijEVnzFpKFaMIr0T0D3W-3" value="" style="endArrow=classic;startArrow=classic;html=1;" edge="1" parent="1">
          <mxGeometry width="50" height="50" relative="1" as="geometry">
            <mxPoint x="390" y="420" as="sourcePoint" />
            <mxPoint x="440" y="370" as="targetPoint" />
          </mxGeometry>
        </mxCell>
        <mxCell id="ijEVnzFpKFaMIr0T0D3W-5" value="" style="pointerEvents=1;verticalLabelPosition=bottom;shadow=0;dashed=0;align=center;html=1;verticalAlign=top;shape=mxgraph.electrical.inductors.transformer_2;fillColor=#a20025;strokeColor=#6F0000;fontColor=#ffffff;" vertex="1" parent="1">
          <mxGeometry x="320" y="140" width="64" height="60" as="geometry" />
        </mxCell>
        <mxCell id="ijEVnzFpKFaMIr0T0D3W-6" style="edgeStyle=orthogonalEdgeStyle;rounded=0;orthogonalLoop=1;jettySize=auto;html=1;exitX=1;exitY=0.5;exitDx=0;exitDy=0;entryX=0;entryY=0.5;entryDx=0;entryDy=0;" edge="1" parent="1" source="ijEVnzFpKFaMIr0T0D3W-1" target="ijEVnzFpKFaMIr0T0D3W-5">
          <mxGeometry relative="1" as="geometry">
            <mxPoint x="200" y="170" as="sourcePoint" />
            <mxPoint x="480" y="170" as="targetPoint" />
          </mxGeometry>
        </mxCell>
        <mxCell id="ijEVnzFpKFaMIr0T0D3W-7" value="" style="pointerEvents=1;verticalLabelPosition=bottom;shadow=0;dashed=0;align=center;html=1;verticalAlign=top;shape=mxgraph.electrical.electro-mechanical.push_switch_no;" vertex="1" parent="1">
          <mxGeometry x="330" y="240" width="75" height="19" as="geometry" />
        </mxCell>
      </root>
    </mxGraphModel>
  </diagram>
</mxfile>
